# xmcd
#
# Track frame offsets: 
#        150
#        29079
#        46006
#        64187
#        87721
#        110252
#        136931
#        155302
#        171647
#        189351
#        208897
#        227481
#
# Disc length: 3510 seconds
#
# Revision: 2
# Processed by: cddbd v1.5.2PL0 Copyright (c) Steve Scherf et al.
# Submitted via: ExactAudioCopy v0.99pb3
#
DISCID=a60db40c
DTITLE=Gwyn Ashton - Prohibition
DYEAR=2006
DGENRE=Blues
TTITLE0=Ball and Chain
TTITLE1=Ain't My Style
TTITLE2=Get Up, Get Over It
TTITLE3=Prohibition
TTITLE4=The Road Is My Religion
TTITLE5=Secret Agent
TTITLE6=Come On - Don't Walk, Run!
TTITLE7=Castaway
TTITLE8=Back To You
TTITLE9=Are You Lonely
TTITLE10=Guitar Town
TTITLE11=Rest In Paradise
EXTD=YEAR: 2006
EXTT0=
EXTT1=
EXTT2=
EXTT3=
EXTT4=
EXTT5=
EXTT6=
EXTT7=
EXTT8=
EXTT9=
EXTT10=
EXTT11=
PLAYORDER=
